<svg xmlns="http://www.w3.org/2000/svg" viewBox="0 0 24 24">
<rect width="24" height="24" rx="5" fill="#0B3D6E"/>
<g fill="none" stroke="#FFD86B" stroke-width="1.8" stroke-linecap="round" stroke-linejoin="round">
<path d="M12 20V8"/>
<path d="M12 8C12 5.6 10.3 3.8 7.8 3.8c0 2.5 1.8 4.2 4.2 4.2z"/>
<path d="M12 8c0-2.4 1.7-4.2 4.2-4.2 0 2.5-1.8 4.2-4.2 4.2z"/>
<path d="M12 13.4c0-2.4-1.7-4.2-4.2-4.2 0 2.5 1.8 4.2 4.2 4.2z"/>
<path d="M12 13.4c0-2.4 1.7-4.2 4.2-4.2 0 2.5-1.8 4.2-4.2 4.2z"/>
</g>
</svg>
